<svg id="visual" viewBox="0 0 900 600" width="900" height="600" xmlns="http://www.w3.org/2000/svg" xmlns:xlink="http://www.w3.org/1999/xlink" version="1.1"><rect x="0" y="0" width="900" height="600" fill="#FF0066"></rect><g transform="translate(461.4253065902376 263.2522038372899)"><path d="M143.4 -158.2C180.5 -139.7 201.5 -89.5 213.8 -35.4C226 18.7 229.5 76.6 208.8 128.1C188 179.6 143.1 224.6 91.6 237.1C40 249.6 -18.1 229.6 -77.8 209.6C-137.4 189.7 -198.6 169.9 -227 127.7C-255.3 85.5 -250.7 21.1 -226.6 -26.8C-202.5 -74.6 -158.8 -105.9 -117.7 -123.7C-76.7 -141.4 -38.4 -145.7 7.4 -154.5C53.1 -163.3 106.3 -176.7 143.4 -158.2" fill="#BB004B"></path></g></svg>