<svg id="visual" viewBox="0 0 900 600" width="900" height="600" xmlns="http://www.w3.org/2000/svg" xmlns:xlink="http://www.w3.org/1999/xlink" version="1.1"><rect x="0" y="0" width="900" height="600" fill="#FF0066"></rect><g transform="translate(448.31194548687665 253.74669734287804)"><path d="M114.5 -113.9C161.3 -97.2 221 -73.3 240.4 -32.2C259.9 9 239 67.5 209.4 122.7C179.7 178 141.2 229.9 88.7 253.1C36.3 276.3 -30.1 270.6 -77.7 241.2C-125.2 211.8 -154 158.7 -184.3 106.3C-214.7 54 -246.7 2.4 -244.5 -48.9C-242.4 -100.2 -206 -151.2 -159.6 -168C-113.1 -184.8 -56.6 -167.4 -11.4 -153.9C33.9 -140.4 67.7 -130.7 114.5 -113.9" fill="#BB004B"></path></g></svg>