<svg xmlns="http://www.w3.org/2000/svg" width="70" height="70" viewBox="0 0 70 70">
  <path id="Icon_awesome-bootstrap" data-name="Icon awesome-bootstrap" d="M45.672,45.989c0,6.627-6.206,6.473-6.862,6.473H26.17V39.7H38.809c6.65,0,6.862,4.984,6.862,6.291ZM37.836,34.563c.1,0,6.006.156,6.006-5.673,0-2.425-.548-5.6-6.006-5.6H26.17V34.563ZM70,13.917V60.583A11.7,11.7,0,0,1,58.333,72.25H11.667A11.7,11.7,0,0,1,0,60.583V13.917A11.7,11.7,0,0,1,11.667,2.25H58.333A11.7,11.7,0,0,1,70,13.917Zm-17.18,33c0-3.37-1.039-9.108-7.664-10.523v-.114a8.952,8.952,0,0,0,5.834-8.694c0-1.094.313-10.122-12.125-10.122H19.022V58.3c20.036,0,21.855.263,25.562-.892,2.22-.691,8.236-2.809,8.236-10.488Z" transform="translate(0 -2.25)"/>
</svg>
