<svg xmlns="http://www.w3.org/2000/svg" width="503.81" height="491.222" viewBox="0 0 503.81 491.222">
  <path id="Icon_awesome-github" data-name="Icon awesome-github" d="M168.512,396.094c0,2.031-2.336,3.657-5.282,3.657-3.352.3-5.688-1.32-5.688-3.657,0-2.031,2.336-3.657,5.282-3.657C165.871,392.133,168.512,393.758,168.512,396.094Zm-31.59-4.571c-.711,2.031,1.32,4.368,4.368,4.977,2.641,1.016,5.688,0,6.3-2.032s-1.32-4.368-4.368-5.282C140.579,388.476,137.634,389.492,136.923,391.523Zm44.9-1.727c-2.946.711-4.977,2.641-4.672,4.977.3,2.031,2.946,3.352,5.993,2.641,2.946-.711,4.977-2.641,4.672-4.672C187.507,390.812,184.764,389.492,181.819,389.8ZM248.655.563C107.771.563,0,107.521,0,248.4,0,361.051,70.9,457.445,172.169,491.371c13,2.336,17.572-5.688,17.572-12.291,0-6.3-.3-41.036-.3-62.367,0,0-71.1,15.236-86.034-30.269,0,0-11.579-29.558-28.238-37.176,0,0-23.261-15.947,1.625-15.642,0,0,25.292,2.031,39.208,26.206,22.245,39.208,59.523,27.933,74.048,21.229,2.336-16.252,8.939-27.527,16.252-34.231-56.78-6.3-114.068-14.525-114.068-112.24,0-27.933,7.72-41.95,23.972-59.827-2.641-6.6-11.275-33.824,2.641-68.969,21.229-6.6,70.086,27.425,70.086,27.425a239.96,239.96,0,0,1,127.578,0s48.857-34.129,70.086-27.425c13.916,35.246,5.282,62.367,2.641,68.969,16.252,17.979,26.206,32,26.206,59.827,0,98.019-59.827,105.841-116.608,112.24,9.345,8.024,17.268,23.261,17.268,47.131,0,34.231-.3,76.587-.3,84.916,0,6.6,4.672,14.627,17.572,12.291C434.942,457.445,503.81,361.051,503.81,248.4,503.81,107.521,389.539.563,248.655.563ZM98.731,350.893c-1.32,1.016-1.016,3.352.711,5.282,1.625,1.625,3.961,2.336,5.282,1.016,1.32-1.016,1.016-3.352-.711-5.282C102.387,350.284,100.051,349.573,98.731,350.893Zm-10.97-8.228c-.711,1.32.3,2.946,2.336,3.961,1.625,1.016,3.657.711,4.368-.711.711-1.32-.3-2.946-2.336-3.961C90.1,341.345,88.471,341.65,87.76,342.666Zm32.91,36.161c-1.625,1.32-1.016,4.368,1.32,6.3,2.336,2.336,5.282,2.641,6.6,1.016,1.32-1.32.711-4.368-1.32-6.3C125.038,377.506,121.991,377.2,120.671,378.826Zm-11.58-14.931c-1.625,1.016-1.625,3.657,0,5.993s4.368,3.352,5.688,2.336c1.625-1.32,1.625-3.961,0-6.3C113.357,363.59,110.716,362.574,109.091,363.895Z" transform="translate(0 -0.563)" fill="rgba(2,123,255,0.05)"/>
</svg>
