<svg id="visual" viewBox="0 0 960 540" width="960" height="540" xmlns="http://www.w3.org/2000/svg" xmlns:xlink="http://www.w3.org/1999/xlink" version="1.1"><g stroke-width="1" stroke-linejoin="bevel"><path d="M577 215L753 0L571 0Z" fill="#297ea6" stroke="#297ea6"></path><path d="M577 215L807 248L753 0Z" fill="#112e42" stroke="#112e42"></path><path d="M577 215L758 337L807 248Z" fill="#081a28" stroke="#081a28"></path><path d="M960 407L960 156L807 248Z" fill="#205a7a" stroke="#205a7a"></path><path d="M807 248L960 156L753 0Z" fill="#112e42" stroke="#112e42"></path><path d="M571 0L378 0L577 215Z" fill="#15384f" stroke="#15384f"></path><path d="M960 156L960 0L753 0Z" fill="#19435d" stroke="#19435d"></path><path d="M339 398L537 428L577 215Z" fill="#205a7a" stroke="#205a7a"></path><path d="M577 215L537 428L758 337Z" fill="#112e42" stroke="#112e42"></path><path d="M378 0L312 178L577 215Z" fill="#19435d" stroke="#19435d"></path><path d="M842 540L960 407L758 337Z" fill="#00101c" stroke="#00101c"></path><path d="M758 337L960 407L807 248Z" fill="#297ea6" stroke="#297ea6"></path><path d="M312 178L339 398L577 215Z" fill="#112e42" stroke="#112e42"></path><path d="M344 540L547 540L537 428Z" fill="#19435d" stroke="#19435d"></path><path d="M537 428L547 540L758 337Z" fill="#112e42" stroke="#112e42"></path><path d="M547 540L842 540L758 337Z" fill="#00101c" stroke="#00101c"></path><path d="M198 0L195 170L312 178Z" fill="#0c2435" stroke="#0c2435"></path><path d="M312 178L195 170L339 398Z" fill="#277297" stroke="#277297"></path><path d="M378 0L198 0L312 178Z" fill="#297ea6" stroke="#297ea6"></path><path d="M842 540L960 540L960 407Z" fill="#1d4e6b" stroke="#1d4e6b"></path><path d="M260 540L344 540L339 398Z" fill="#246688" stroke="#246688"></path><path d="M339 398L344 540L537 428Z" fill="#246688" stroke="#246688"></path><path d="M129 374L260 540L339 398Z" fill="#19435d" stroke="#19435d"></path><path d="M0 179L129 374L195 170Z" fill="#297ea6" stroke="#297ea6"></path><path d="M195 170L129 374L339 398Z" fill="#205a7a" stroke="#205a7a"></path><path d="M0 0L0 179L195 170Z" fill="#19435d" stroke="#19435d"></path><path d="M198 0L0 0L195 170Z" fill="#081a28" stroke="#081a28"></path><path d="M0 179L0 433L129 374Z" fill="#0c2435" stroke="#0c2435"></path><path d="M129 374L0 540L260 540Z" fill="#081a28" stroke="#081a28"></path><path d="M0 433L0 540L129 374Z" fill="#081a28" stroke="#081a28"></path></g></svg>