<svg width="128" height="128" viewBox="0 0 128 128" fill="none" xmlns="http://www.w3.org/2000/svg">
<rect width="128" height="128" rx="12" fill="#1A2331"/>
<rect x="15" y="15" width="98" height="98" rx="12" stroke="white" stroke-width="4" stroke-linejoin="round"/>
<path d="M46.6406 40.75H55.2891C57.7422 40.75 59.5078 41.2578 60.5859 42.2734C61.6641 43.2891 62.3125 45.0156 62.5312 47.4531C62.625 48.4531 62.6719 50.0156 62.6719 52.1406C62.6719 54.25 62.3906 56.0234 61.8281 57.4609C61.2812 58.8984 60.3047 59.8281 58.8984 60.25C59.9297 60.4219 60.7109 60.9688 61.2422 61.8906C61.7734 62.7969 62.1484 64.25 62.3672 66.25C62.5859 68.2344 62.6953 71.1953 62.6953 75.1328C62.6953 79.0547 62.8203 81.3438 63.0703 82H58.2422C57.9922 81.5 57.8672 76.8672 57.8672 68.1016C57.8672 65.1484 57.5781 63.4375 57 62.9688C56.4219 62.4844 55.5469 62.2422 54.375 62.2422L51.4922 62.0781V82H46.6406V40.75ZM57.8672 50.8516C57.8672 47.6797 57.5781 45.8438 57 45.3438C56.4375 44.8438 55.6172 44.5938 54.5391 44.5938H51.4922V58.5156H54.5859C55.5234 58.5156 56.2109 58.3359 56.6484 57.9766C57.0859 57.6172 57.3984 56.9297 57.5859 55.9141C57.7734 54.8984 57.8672 53.3047 57.8672 51.1328V50.8516Z" fill="white"/>
<path d="M77.6016 40.75H82.4531V72.0156C82.4531 79 80 82.4922 75.0938 82.4922C72.5 82.4922 70.5938 81.7031 69.375 80.125C68.1562 78.5312 67.5469 76.1172 67.5469 72.8828V67.4922H72.2812V72.5781C72.2812 74.6719 72.375 75.9531 72.5625 76.4219C72.75 76.8906 72.9375 77.2656 73.125 77.5469C73.5 78.0938 74.1172 78.3672 74.9766 78.3672C75.8516 78.3672 76.4688 78.0781 76.8281 77.5C77.2031 76.9062 77.4219 76.1875 77.4844 75.3438C77.5625 74.4844 77.6016 73.4375 77.6016 72.2031V40.75Z" fill="#D23047"/>
<line x1="47" y1="100" x2="82" y2="100" stroke="white" stroke-width="4"/>
</svg>
