<svg xmlns="http://www.w3.org/2000/svg" width="31.386" height="70" viewBox="0 0 31.386 70">
  <path id="Icon_simple-mongodb" data-name="Icon simple-mongodb" d="M40.733,27.761C37.049,11.544,28.36,6.215,27.427,4.177A26.208,26.208,0,0,1,25.289,0c-.006.055-.012.09-.015.143V.181h0c-.006.044-.009.073-.012.114V.338h-.006c0,.029-.006.052-.006.076V.49h-.009a.555.555,0,0,1-.009.073V.624h-.006a.208.208,0,0,1-.006.061V.744h-.006c0,.029,0,.064-.006.093V.843c-.009.05-.018.1-.026.146v.023h-.006a.154.154,0,0,0-.009.035V1.1h-.009v.064h-.015v.053h-.015v.061h-.012V1.33h-.012v.05h-.017V1.42h-.012v.053h-.012v.041H25.05v.038h-.009V1.6h-.012a.018.018,0,0,0,0,.012v.029h-.009a.037.037,0,0,0,0,.018v.017h-.006A.128.128,0,0,0,25,1.7c-.009.02-.02.041-.029.061v.006a.089.089,0,0,0-.015.02v.023h-.012v.023h-.015v.023h-.009v.029h-.018v.041H24.9V1.94h-.012v.023h-.012V2H24.86v.023h-.017V2.05h-.012v.023h-.015V2.1h-.009v.029h-.015V2.15h-.012v.017H24.77V2.19h-.018v.026h-.012v.017h-.015v.023h-.012V2.29H24.7V2.3h-.009v.023h-.018v.012h-.012v.029H24.65v.012h-.012V2.4h-.015v.017h-.009l-.006.012v.012H24.6c0,.006-.006.006-.006.012v0h0a.047.047,0,0,1-.012.02v.009h0a.547.547,0,0,0-.035.052v0a.131.131,0,0,0-.026.029v.006h0s-.009.006-.009.009v.009H24.5l-.009.009v0h0s-.006.006-.009.012v.012h-.009l-.006.006V2.64h-.006c0,.006-.006.006-.006.009v.009h-.012s0,.006-.006.009v.017h-.009V2.7h-.012v.017h-.012v.023h-.015V2.713h-.015v.012h-.012v.017H24.35v.023h-.015v.012h-.012v.017h-.012v.012H24.3v.023h-.018v.012h-.012v.017h-.015V2.87h-.012v.015H24.23v.029h-.006v.012h-.018V2.94H24.2v.006h-.012v.012h-.015v.029h-.012V3h-.015V3.01h-.012v.017h-.015v.012H24.1v.012H24.09v.012h-.012v.029h-.012v.015h-.017v.012h-.012V3.13h-.015v.017h-.012v.012H24v.02h-.012v.012h-.018v.017h-.006V3.22H23.95v.012h-.015v.012h-.012v.017h-.015v.012H23.9a.009.009,0,0,0,0,.006v.006h-.006L23.88,3.3a.054.054,0,0,1-.012.009v.017h-.012v.015h-.012v.012h-.012V3.36h-.009l-.009.009v.009H23.81l-.006.006v.009H23.8a.292.292,0,0,1-.041.047l-.035.029a1.067,1.067,0,0,0-.114.093.615.615,0,0,0-.064.05v0h0l-.143.114v0c-.07.058-.137.114-.216.181v0h-.006c-.166.137-.341.292-.542.464v0h0c-.493.432-1.079.986-1.735,1.657l-.044.044-.012.012c-3.967,4.1-10.217,12.655-10.876,26.475A30.234,30.234,0,0,0,9.982,35.9v.026A31.778,31.778,0,0,0,14.147,49.8v0a36.533,36.533,0,0,0,2.7,4.1v0a37.324,37.324,0,0,0,7.332,7.368c1.286,2.984,1.167,8.105,1.167,8.105L27.226,70a34.981,34.981,0,0,1,.155-7.356A4.544,4.544,0,0,1,28.4,60.713a24.443,24.443,0,0,0,2.325-1.881c.052-.055.082-.105.128-.158,4.436-4.136,12.722-14.321,9.882-30.914Z" transform="translate(-9.927)"/>
</svg>
