<svg xmlns="http://www.w3.org/2000/svg" width="62.062" height="70" viewBox="0 0 62.062 70">
  <path id="Icon_awesome-node-js" data-name="Icon awesome-node-js" d="M31.066,70.285a5.441,5.441,0,0,1-2.695-.722l-8.57-5.07c-1.278-.722-.653-.972-.236-1.111a16.882,16.882,0,0,0,3.875-1.764.627.627,0,0,1,.639.056l6.584,3.9a.8.8,0,0,0,.792,0L57.11,50.769a.822.822,0,0,0,.389-.695V20.46a.828.828,0,0,0-.4-.708L31.455,4.959a.8.8,0,0,0-.792,0L5.036,19.766a.811.811,0,0,0-.4.708v29.6a.767.767,0,0,0,.4.681l7.028,4.056c3.82,1.9,6.153-.333,6.153-2.6V22.988a.735.735,0,0,1,.75-.736h3.25a.744.744,0,0,1,.75.736V52.227c0,5.084-2.778,8-7.6,8-1.486,0-2.653,0-5.9-1.611L2.744,54.742A5.4,5.4,0,0,1,.049,50.061V20.46a5.418,5.418,0,0,1,2.695-4.681L28.371.972a5.624,5.624,0,0,1,5.389,0L59.416,15.793a5.4,5.4,0,0,1,2.695,4.681v29.6a5.435,5.435,0,0,1-2.695,4.681L33.761,69.562a5.4,5.4,0,0,1-2.695.722ZM51.777,41.1c0-5.542-3.75-7.015-11.626-8.056-7.973-1.056-8.779-1.6-8.779-3.459,0-1.542.681-3.6,6.584-3.6,5.264,0,7.209,1.139,8.015,4.695a.744.744,0,0,0,.722.583h3.334a.725.725,0,0,0,.542-.236.773.773,0,0,0,.194-.569c-.514-6.126-4.584-8.973-12.807-8.973-7.32,0-11.682,3.084-11.682,8.265,0,5.612,4.348,7.167,11.362,7.862,8.4.82,9.056,2.056,9.056,3.709,0,2.861-2.306,4.084-7.709,4.084-6.792,0-8.279-1.709-8.779-5.084a.735.735,0,0,0-.736-.625h-3.32a.732.732,0,0,0-.736.736c0,4.32,2.347,9.473,13.585,9.473,8.112-.014,12.779-3.223,12.779-8.806Z" transform="translate(-0.049 -0.285)"/>
</svg>
