<svg xmlns="http://www.w3.org/2000/svg" width="51.609" height="70" viewBox="0 0 51.609 70">
  <path id="Icon_awesome-java" data-name="Icon awesome-java" d="M37.776,42.779a22.1,22.1,0,0,1,3.2-1.709s-5.291.957-10.555,1.395c-6.439.533-13.357.643-16.83.178C5.374,41.548,18.1,38.527,18.1,38.527a24.214,24.214,0,0,0-11.019,2.6C-.1,44.6,24.856,46.183,37.776,42.779ZM26.1,38.39c-2.6-5.838-11.361-10.965,0-19.933C40.272,7.273,33,0,33,0,35.943,11.553,22.668,15.053,17.87,22.23,14.6,27.138,19.469,32.4,26.1,38.39ZM41.768,14.3c.014,0-23.953,5.988-12.51,19.168,3.377,3.883-.889,7.383-.889,7.383s8.572-4.43,4.635-9.967c-3.678-5.168-6.494-7.738,8.764-16.584Zm-.834,36.982a1.667,1.667,0,0,1-.273.355c17.541-4.607,11.088-16.256,2.707-13.3a2.369,2.369,0,0,0-1.121.861,9.632,9.632,0,0,1,1.5-.41c4.238-.889,10.322,5.674-2.816,12.5ZM47.381,59.8s1.982,1.627-2.174,2.9c-7.916,2.393-32.921,3.117-39.867.1-2.5-1.08,2.187-2.6,3.664-2.912a9.918,9.918,0,0,1,2.42-.273C8.649,57.654-6.526,63.45,3.714,65.1,31.637,69.644,54.627,63.068,47.381,59.8ZM16.817,54.14c-10.76,3.008,6.549,9.215,20.248,3.35A25.414,25.414,0,0,1,33.209,55.6a40.01,40.01,0,0,1-14.492.615c-4.58-.52-1.9-2.078-1.9-2.078ZM41.4,67.429a103.628,103.628,0,0,1-31.9.492c0-.014,1.613,1.326,9.9,1.859,12.605.807,31.964-.451,32.416-6.412,0,0-.875,2.256-10.418,4.06ZM35.438,48.261a56.478,56.478,0,0,1-18.7.9c-4.58-.479-1.586-2.693-1.586-2.693-11.867,3.937,6.59,8.394,23.174,3.541a8.253,8.253,0,0,1-2.885-1.75Z" transform="translate(-0.208)"/>
</svg>
