<svg xmlns="http://www.w3.org/2000/svg" width="80" height="70.004" viewBox="0 0 80 70.004">
  <path id="Icon_awesome-react" data-name="Icon awesome-react" d="M65.344,24.936q-1.266-.422-2.531-.8c.141-.578.266-1.156.391-1.734,1.922-9.312.656-16.8-3.609-19.266C55.484.78,48.781,3.233,42,9.14c-.672.578-1.328,1.188-1.953,1.8-.422-.406-.859-.812-1.3-1.2C31.641,3.421,24.516.765,20.25,3.249c-4.094,2.375-5.312,9.422-3.594,18.234.172.875.359,1.734.578,2.609-1,.281-1.984.594-2.906.922C5.984,27.905,0,32.468,0,37.186c0,4.875,6.375,9.766,15.047,12.734.7.234,1.406.469,2.125.672-.234.938-.437,1.859-.625,2.813-1.641,8.672-.359,15.547,3.734,17.906C24.5,73.749,31.594,71.249,38.5,65.2c.547-.484,1.094-.984,1.641-1.516.688.672,1.406,1.313,2.125,1.938,6.688,5.75,13.3,8.078,17.375,5.719,4.219-2.437,5.594-9.828,3.813-18.828q-.211-1.031-.469-2.109c.5-.141.984-.3,1.469-.453C73.469,46.968,80,42.14,80,37.186c0-4.734-6.156-9.328-14.656-12.25ZM44.2,11.671c5.812-5.063,11.234-7.047,13.7-5.625,2.641,1.516,3.656,7.641,2,15.687-.109.531-.219,1.047-.359,1.562A79.988,79.988,0,0,0,49.031,21.64a78.945,78.945,0,0,0-6.656-8.3c.609-.578,1.2-1.125,1.828-1.672ZM26.125,45.3c.8,1.359,1.609,2.719,2.469,4.047a70.752,70.752,0,0,1-7.25-1.172,72.99,72.99,0,0,1,2.547-6.953c.719,1.375,1.453,2.734,2.234,4.078ZM21.391,26.5c2.25-.5,4.641-.906,7.125-1.219-.828,1.3-1.641,2.625-2.406,3.969-.766,1.328-1.516,2.688-2.219,4.063-.984-2.328-1.812-4.609-2.5-6.812Zm4.281,10.766C26.7,35.108,27.828,33,29.016,30.921s2.469-4.094,3.813-6.078c2.344-.172,4.734-.266,7.172-.266s4.844.094,7.172.266q1.992,2.953,3.8,6.047T54.359,37.2q-1.57,3.234-3.375,6.375c-1.187,2.078-2.453,4.094-3.781,6.094-2.328.172-4.75.25-7.2.25s-4.828-.078-7.125-.219q-2.039-2.977-3.844-6.094c-1.2-2.078-2.312-4.187-3.359-6.344Zm28.219,8c.8-1.375,1.547-2.766,2.281-4.172a72.532,72.532,0,0,1,2.641,6.922,68.631,68.631,0,0,1-7.344,1.25C52.313,47.952,53.109,46.608,53.891,45.265Zm2.25-11.953c-.734-1.375-1.484-2.75-2.266-4.094q-1.148-1.992-2.391-3.937a71.9,71.9,0,0,1,7.172,1.25,69.15,69.15,0,0,1-2.516,6.781ZM40.031,15.733a68.611,68.611,0,0,1,4.625,5.594c-3.094-.141-6.2-.141-9.3,0C36.891,19.311,38.469,17.436,40.031,15.733ZM21.906,6.155c2.625-1.531,8.453.656,14.594,6.094.391.344.781.719,1.188,1.094a79.383,79.383,0,0,0-6.7,8.3,82.364,82.364,0,0,0-10.5,1.625c-.2-.8-.375-1.609-.547-2.422-1.469-7.562-.5-13.266,1.969-14.687ZM18.078,47.343c-.656-.187-1.3-.391-1.937-.609A31.868,31.868,0,0,1,6.3,41.858a7.011,7.011,0,0,1-2.937-4.672c0-2.859,4.937-6.516,12.062-9,.891-.312,1.8-.594,2.7-.859a83.084,83.084,0,0,0,3.828,9.937,85.41,85.41,0,0,0-3.875,10.078ZM36.3,62.655a28.6,28.6,0,0,1-8.812,5.516,6.916,6.916,0,0,1-5.516.2C19.484,66.936,18.453,61.421,19.859,54c.172-.875.359-1.75.578-2.609a78.167,78.167,0,0,0,10.609,1.531,82.459,82.459,0,0,0,6.75,8.344C37.3,61.749,36.8,62.218,36.3,62.655Zm3.828-3.8c-1.594-1.719-3.187-3.625-4.734-5.672,1.5.063,3.047.094,4.609.094,1.609,0,3.188-.031,4.75-.109a67.383,67.383,0,0,1-4.625,5.688Zm20.422,4.687a6.944,6.944,0,0,1-2.578,4.891c-2.484,1.437-7.781-.437-13.5-5.344-.656-.562-1.313-1.172-1.984-1.8a77.294,77.294,0,0,0,6.594-8.375A77.026,77.026,0,0,0,59.734,51.28c.156.641.3,1.281.422,1.906a28.483,28.483,0,0,1,.391,10.359Zm2.844-16.8c-.437.141-.875.281-1.328.406a79.374,79.374,0,0,0-3.984-9.969,78.979,78.979,0,0,0,3.828-9.828c.813.234,1.594.484,2.344.734,7.281,2.5,12.391,6.219,12.391,9.063,0,3.063-5.453,7.016-13.25,9.594ZM40,44.405a7.156,7.156,0,1,0-7.156-7.156A7.155,7.155,0,0,0,40,44.405Z" transform="translate(0 -2.251)"/>
</svg>
