<svg xmlns="http://www.w3.org/2000/svg" width="70" height="70" viewBox="0 0 70 70">
  <path id="Icon_awesome-python" data-name="Icon awesome-python" d="M68.716,28.577c-1.2-4.828-3.484-8.468-8.343-8.468H54.108v7.406A10.716,10.716,0,0,1,43.67,38.108H26.984a8.515,8.515,0,0,0-8.343,8.484V62.5c0,4.531,3.937,7.187,8.343,8.484a28.077,28.077,0,0,0,16.687,0c4.2-1.219,8.343-3.672,8.343-8.484V56.139H35.343V54.014h25.03c4.859,0,6.656-3.391,8.343-8.468,1.75-5.234,1.672-10.265,0-16.968Zm-24,31.8a3.18,3.18,0,1,1-3.141,3.172A3.157,3.157,0,0,1,44.717,60.373Zm-18.5-24.359H42.9a8.413,8.413,0,0,0,8.343-8.484V11.609c0-4.531-3.812-7.922-8.343-8.687a51.5,51.5,0,0,0-16.687.016c-7.062,1.25-8.343,3.859-8.343,8.687v6.359h16.7v2.125H11.609A10.431,10.431,0,0,0,1.172,28.577a31.294,31.294,0,0,0,0,16.968c1.187,4.937,4.015,8.468,8.875,8.468h5.734V46.389A10.609,10.609,0,0,1,26.218,36.015Zm-1.047-22.28a3.18,3.18,0,1,1,3.141-3.172,3.157,3.157,0,0,1-3.141,3.172Z" transform="translate(0 -2.25)"/>
</svg>
